<?xml version="1.0"?>
<svg xmlns="http://www.w3.org/2000/svg" viewBox="0 0 512 512" width="512px" height="512px"><g><g id="Out_line" data-name="Out line"><path d="M320,232a96,96,0,1,0,96,96A96.10874,96.10874,0,0,0,320,232Zm0,176a80,80,0,1,1,80-80A80.09041,80.09041,0,0,1,320,408Z" data-original="#000000" class="active-path" data-old_color="#000000" fill="#377DFF"/><path d="M448,419.31348l34.34326,34.34326,11.31348-11.31348-40-40a8,8,0,0,0-11.31348,0L436,408.68652l-9.60425-9.60424a128.11378,128.11378,0,1,0-35.31347,35.31347L400.68652,444l-6.34326,6.34326a7.99915,7.99915,0,0,0,0,11.31348l40,40,11.31348-11.31348L435.31348,480l26.34326-26.34326-11.31348-11.31348L424,468.68652,411.31348,456ZM208,328A112,112,0,1,1,320,440,112.12706,112.12706,0,0,1,208,328Zm195.90161,96.58813a129.15624,129.15624,0,0,0,12.68652-12.68652L424.68652,420,412,432.68652Z" data-original="#000000" class="active-path" data-old_color="#000000" fill="#377DFF"/><path d="M304,184h16V72a7.99977,7.99977,0,0,0-8-8H208V80h96Z" data-original="#000000" class="active-path" data-old_color="#000000" fill="#377DFF"/><path d="M304,479.94873H32V80h96V64H24a7.99977,7.99977,0,0,0-8,8V487.94873a7.99977,7.99977,0,0,0,8,8H312a7.99977,7.99977,0,0,0,8-8V472H304Z" data-original="#000000" class="active-path" data-old_color="#000000" fill="#377DFF"/><circle cx="168" cy="48" r="8" data-original="#000000" class="active-path" data-old_color="#000000" fill="#377DFF"/><path d="M135.56248,96H56a7.99977,7.99977,0,0,0-8,8V455.94873a7.99977,7.99977,0,0,0,8,8H248v-16H64V112H88.02185A39.79044,39.79044,0,0,0,80,136a7.99977,7.99977,0,0,0,8,8H248a7.99977,7.99977,0,0,0,8-8,39.79044,39.79044,0,0,0-8.02185-24H272v80h16V104a7.99977,7.99977,0,0,0-8-8H200.43748a12.28914,12.28914,0,0,1-8.74705-3.62305,12.41842,12.41842,0,0,1-2.48926-13.92041l7.84912-17.04834a31.98158,31.98158,0,1,0-58.10058,0l7.84912,17.04834a12.41842,12.41842,0,0,1-2.48926,13.92041A12.28916,12.28916,0,0,1,135.56248,96ZM161.332,71.76514,153.48291,54.7168a15.9586,15.9586,0,0,1,.0166-13.40381A15.98155,15.98155,0,0,1,182.5,41.31348a15.95745,15.95745,0,0,1,.01709,13.40332L174.668,71.76514a28.47831,28.47831,0,0,0,5.709,31.92529A28.17332,28.17332,0,0,0,200,111.98938V112h16a24.04118,24.04118,0,0,1,22.62891,16H97.37109A24.04118,24.04118,0,0,1,120,112h16v-.01062a28.17332,28.17332,0,0,0,19.62305-8.29895A28.47831,28.47831,0,0,0,161.332,71.76514Z" data-original="#000000" class="active-path" data-old_color="#000000" fill="#377DFF"/><path d="M248,176H232.9707a13.56781,13.56781,0,0,1-9.65722-4,29.65612,29.65612,0,0,0-44.6958,3.17676L176,178.66687V168H160v10.66687l-2.61768-3.49011A29.65612,29.65612,0,0,0,112.68652,172a13.56781,13.56781,0,0,1-9.65722,4H88v16h9.87042L81.14014,219.88379l.00683.00415A7.95007,7.95007,0,0,0,80,224v8a32,32,0,0,0,64,0v-8a7.95007,7.95007,0,0,0-1.147-4.11206l.00683-.00415-20.8526-34.7544c.686-.57324,1.35285-1.176,1.99274-1.81591a13.65751,13.65751,0,0,1,20.58252,1.46289l9.01758,12.02343A7.99927,7.99927,0,0,0,160,200v64.80493A40.06761,40.06761,0,0,0,128,304a7.99977,7.99977,0,0,0,8,8h40V296H145.37109a24.01249,24.01249,0,0,1,34.62256-12.79443l8.0127-13.84864A39.86029,39.86029,0,0,0,176,264.81226V200a7.99927,7.99927,0,0,0,6.3999-3.2002l9.01758-12.02294A13.65708,13.65708,0,0,1,212,183.31348c.63989.63989,1.3067,1.24267,1.99274,1.81591l-20.8526,34.7544.00683.00415A7.95007,7.95007,0,0,0,192,224v8a31.92914,31.92914,0,0,0,1.82275,10.666l15.08594-5.332A15.95705,15.95705,0,0,1,208,232h16V216h-9.87042L224,199.54932l7.54,12.5664,13.71973-8.23144L238.12927,192H248ZM112,248a16.01833,16.01833,0,0,1-16-16h32A16.01833,16.01833,0,0,1,112,248Zm-9.87042-32L112,199.54932,121.87042,216Z" data-original="#000000" class="active-path" data-old_color="#000000" fill="#377DFF"/><rect x="80" y="320" width="48" height="16" data-original="#000000" class="active-path" data-old_color="#000000" fill="#377DFF"/><rect x="80" y="352" width="64" height="16" data-original="#000000" class="active-path" data-old_color="#000000" fill="#377DFF"/><rect x="160" y="352" width="24" height="16" data-original="#000000" class="active-path" data-old_color="#000000" fill="#377DFF"/><rect x="80" y="384" width="32" height="16" data-original="#000000" class="active-path" data-old_color="#000000" fill="#377DFF"/><rect x="128" y="384" width="56" height="16" data-original="#000000" class="active-path" data-old_color="#000000" fill="#377DFF"/><rect x="80" y="416" width="112" height="16" data-original="#000000" class="active-path" data-old_color="#000000" fill="#377DFF"/></g></g> </svg>
