<svg height="512pt" viewBox="-32 0 512 512.002" width="512pt" xmlns="http://www.w3.org/2000/svg"><path d="m376.003906 48.003906h-39.832031v-39.84375zm0 0" fill="#fff"/><path d="m264.003906 168.160156h48c0 13.28125-10.71875 24-24 24-13.277344 0-24-10.71875-24-24zm0 0" fill="#94c1ff"/><path d="m288.003906 96.160156 24 72h-48zm0 0" fill="#fff"/><path d="m160.003906 96.160156 24 72h-48zm0 0" fill="#fff"/><path d="m136.003906 168.160156h48c0 13.28125-10.71875 24-24 24-13.199218 0-24-10.71875-24-24zm0 0" fill="#94c1ff"/><path d="m160.003906 96.160156-24 72c0 13.28125 10.800782 24 24 24 13.28125 0 24-10.71875 24-24zm128 0-24 72c0 13.28125 10.722656 24 24 24 13.28125 0 24-10.71875 24-24zm48.167969-48.15625h39.832031v242.636719l-128 85.363281-24 16-24-16-128-85.363281v-282.636719h264l.167969.15625zm0 0" fill="#fff"/><path d="m72.003906 205.363281v85.277344l-64-42.636719zm0 0" fill="#94c1ff"/><path d="m440.003906 248.003906-64 42.636719v-85.277344zm0 0" fill="#94c1ff"/><path d="m440.003906 248.003906v256l-192-128 128-85.363281zm0 0" fill="#d7e9ff"/><path d="m440.003906 504.003906h-432l192-128 24 16 24-16zm0 0" fill="#d7e9ff"/><path d="m200.003906 376.003906-192 128v-256l64 42.636719zm0 0" fill="#d7e9ff"/><g fill="#116fff"><path d="m440.003906 512.003906h-432c-4.421875 0-7.99999975-3.578125-7.99999975-8v-256c0-4.425781 3.57812475-8 7.99999975-8 4.425782 0 8 3.574219 8 8v248h416v-248c0-4.425781 3.578125-8 8-8 4.425782 0 8 3.574219 8 8v256c0 4.421875-3.574218 8-8 8zm0 0"/><path d="m223.996094 400.003906c-1.519532 0-3.0625-.441406-4.429688-1.347656l-216-144c-3.679687-2.453125-4.671875-7.414062-2.21875-11.09375 2.449219-3.679688 7.402344-4.671875 11.097656-2.214844l216 144c3.679688 2.453125 4.671876 7.414063 2.214844 11.09375-1.535156 2.3125-4.078125 3.5625-6.664062 3.5625zm0 0"/><path d="m224.011719 400.003906c-2.582031 0-5.125-1.25-6.664063-3.5625-2.453125-3.679687-1.460937-8.640625 2.21875-11.09375l216-144c3.679688-2.457031 8.648438-1.464844 11.09375 2.214844 2.457032 3.679688 1.464844 8.640625-2.214844 11.09375l-216 144c-1.367187.90625-2.910156 1.347656-4.433593 1.347656zm0 0"/><path d="m439.996094 512.003906c-1.519532 0-3.0625-.441406-4.429688-1.347656l-192.015625-128.007812c-3.679687-2.453126-4.671875-7.414063-2.21875-11.09375 2.441407-3.679688 7.402344-4.671876 11.097657-2.214844l192.015624 128.007812c3.679688 2.453125 4.671876 7.414063 2.214844 11.09375-1.535156 2.3125-4.078125 3.5625-6.664062 3.5625zm0 0"/><path d="m8.011719 512.003906c-2.582031 0-5.125-1.25-6.664063-3.5625-2.453125-3.679687-1.460937-8.640625 2.21875-11.09375l192-128c3.6875-2.457031 8.648438-1.464844 11.09375 2.214844 2.457032 3.679688 1.464844 8.640625-2.214844 11.09375l-192 128c-1.367187.90625-2.910156 1.347656-4.433593 1.347656zm0 0"/><path d="m439.996094 256.003906c-1.519532 0-3.0625-.441406-4.429688-1.347656l-64-42.664062c-3.679687-2.453126-4.671875-7.414063-2.21875-11.09375 2.449219-3.679688 7.402344-4.671876 11.097656-2.214844l64 42.664062c3.679688 2.453125 4.671876 7.414063 2.214844 11.09375-1.535156 2.3125-4.078125 3.5625-6.664062 3.5625zm0 0"/><path d="m8.011719 256.003906c-2.582031 0-5.125-1.25-6.664063-3.5625-2.453125-3.679687-1.460937-8.640625 2.21875-11.09375l64-42.664062c3.679688-2.457032 8.640625-1.464844 11.09375 2.214844 2.457032 3.679687 1.464844 8.640624-2.214844 11.09375l-64 42.664062c-1.367187.90625-2.910156 1.347656-4.433593 1.347656zm0 0"/><path d="m72.003906 298.664062c-4.421875 0-8-3.574218-8-8v-282.660156c0-4.425781 3.578125-7.99999975 8-7.99999975 4.425782 0 8 3.57421875 8 7.99999975v282.660156c0 4.425782-3.574218 8-8 8zm0 0"/><path d="m376.003906 298.664062c-4.421875 0-8-3.574218-8-8v-242.621093c0-4.425781 3.578125-8 8-8 4.425782 0 8 3.574219 8 8v242.621093c0 4.425782-3.574218 8-8 8zm0 0"/><path d="m335.964844 16.003906h-263.960938c-4.421875 0-8-3.578125-8-8 0-4.425781 3.578125-7.99999975 8-7.99999975h263.960938c4.425781 0 8 3.57421875 8 7.99999975 0 4.421875-3.574219 8-8 8zm0 0"/><path d="m320.003906 288.003906h-192c-4.421875 0-8-3.578125-8-8 0-4.425781 3.578125-8 8-8h192c4.425782 0 8 3.574219 8 8 0 4.421875-3.574218 8-8 8zm0 0"/><path d="m280.003906 311.992188h-112c-4.421875 0-8-3.574219-8-8 0-4.421876 3.578125-8 8-8h112c4.425782 0 8 3.578124 8 8 0 4.425781-3.574218 8-8 8zm0 0"/><path d="m287.988281 104.171875h-127.964843c-4.425782 0-8-3.578125-8-8 0-4.425781 3.574218-8 8-8h127.964843c4.425781 0 8 3.574219 8 8 0 4.421875-3.574219 8-8 8zm0 0"/><path d="m224.011719 240.171875c-4.421875 0-8-3.578125-8-8v-160c0-4.425781 3.578125-8 8-8 4.425781 0 8 3.574219 8 8v160c0 4.414063-3.574219 8-8 8zm0 0"/><path d="m280.003906 240.171875h-111.980468c-4.425782 0-8-3.578125-8-8 0-4.425781 3.574218-8 8-8h111.980468c4.425782 0 8 3.574219 8 8 0 4.421875-3.574218 8-8 8zm0 0"/><path d="m160.023438 200.171875c-17.648438 0-32-14.355469-32-32 0-4.425781 3.574218-8 8-8 4.421874 0 8 3.574219 8 8 0 8.820313 7.175781 16 16 16 8.820312 0 16-7.179687 16-16 0-4.425781 3.574218-8 8-8 4.421874 0 8 3.574219 8 8 0 17.652344-14.355469 32-32 32zm0 0"/><path d="m184.023438 176.171875h-48c-4.425782 0-8-3.578125-8-8 0-4.425781 3.574218-8 8-8h48c4.421874 0 8 3.574219 8 8 0 4.421875-3.578126 8-8 8zm0 0"/><path d="m136.023438 176.171875c-.832032 0-1.691407-.136719-2.53125-.417969-4.183594-1.390625-6.453126-5.917968-5.054688-10.121094l24-72.007812c1.398438-4.183594 5.886719-6.472656 10.121094-5.054688 4.183594 1.390626 6.453125 5.917969 5.054687 10.121094l-24 72.007813c-1.121093 3.359375-4.238281 5.472656-7.589843 5.472656zm0 0"/><path d="m184.023438 176.171875c-3.355469 0-6.472657-2.121094-7.585938-5.472656l-24-72.007813c-1.398438-4.195312.863281-8.730468 5.054688-10.121094 4.21875-1.417968 8.730468.863282 10.121093 5.054688l24 72.007812c1.398438 4.191407-.863281 8.730469-5.054687 10.121094-.847656.289063-1.703125.417969-2.535156.417969zm0 0"/><path d="m287.988281 200.171875c-17.648437 0-32-14.355469-32-32 0-4.425781 3.578125-8 8-8 4.425781 0 8 3.574219 8 8 0 8.820313 7.175781 16 16 16s16-7.179687 16-16c0-4.425781 3.578125-8 8-8 4.425781 0 8 3.574219 8 8 0 17.652344-14.351562 32-32 32zm0 0"/><path d="m311.988281 176.171875h-48c-4.421875 0-8-3.578125-8-8 0-4.425781 3.578125-8 8-8h48c4.425781 0 8 3.574219 8 8 0 4.421875-3.574219 8-8 8zm0 0"/><path d="m263.988281 176.171875c-.832031 0-1.6875-.136719-2.527343-.417969-4.183594-1.390625-6.457032-5.917968-5.054688-10.121094l24-72.007812c1.398438-4.183594 5.886719-6.472656 10.121094-5.054688 4.183594 1.390626 6.453125 5.917969 5.054687 10.121094l-24 72.007813c-1.121093 3.359375-4.242187 5.472656-7.59375 5.472656zm0 0"/><path d="m311.988281 176.171875c-3.351562 0-6.46875-2.121094-7.582031-5.472656l-24-72.007813c-1.402344-4.195312.863281-8.730468 5.054688-10.121094 4.226562-1.417968 8.71875.863282 10.121093 5.054688l24 72.007812c1.398438 4.191407-.863281 8.730469-5.054687 10.121094-.851563.289063-1.699219.417969-2.539063.417969zm0 0"/><path d="m376.003906 56.042969c-2.046875 0-4.09375-.785157-5.65625-2.34375l-40.039062-40.042969c-3.128906-3.125-3.128906-8.183594 0-11.308594 3.128906-3.128906 8.183594-3.128906 11.3125 0l40.039062 40.039063c3.128906 3.128906 3.128906 8.183593 0 11.3125-1.558594 1.558593-3.605468 2.34375-5.65625 2.34375zm0 0"/><path d="m376.003906 56.042969h-40.039062c-4.421875 0-8-3.578125-8-8 0-4.425781 3.578125-8 8-8h40.039062c4.425782 0 8 3.574219 8 8 0 4.421875-3.574218 8-8 8zm0 0"/><path d="m336.148438 56.042969c-4.421876 0-8-3.578125-8-8v-40.039063c0-4.425781 3.578124-7.99999975 8-7.99999975 4.425781 0 8 3.57421875 8 7.99999975v40.039063c0 4.421875-3.582032 8-8 8zm0 0"/></g></svg>