<?xml version="1.0"?>
<svg xmlns="http://www.w3.org/2000/svg" id="Layer_5" enable-background="new 0 0 64 64" height="512px" viewBox="0 0 64 64" width="512px"><g><path d="m15 41c1.103 0 2 .897 2 2h2c0-1.859-1.28-3.411-3-3.858v-2.142h-2v2h-3v4c0 2.206 1.794 4 4 4 1.103 0 2 .897 2 2v2h-2c-1.103 0-2-.897-2-2h-2c0 1.859 1.28 3.411 3 3.858v2.142h2v-2h3v-4c0-2.206-1.794-4-4-4-1.103 0-2-.897-2-2v-2z" data-original="#000000" class="active-path" data-old_color="#000000" fill="#377DFF"/><path d="m5 59h20v-26h-20zm2-24h16v22h-16z" data-original="#000000" class="active-path" data-old_color="#000000" fill="#377DFF"/><path d="m5 19h2v2h-2z" data-original="#000000" class="active-path" data-old_color="#000000" fill="#377DFF"/><path d="m9 19h31v2h-31z" data-original="#000000" class="active-path" data-old_color="#000000" fill="#377DFF"/><path d="m5 23h35v2h-35z" data-original="#000000" class="active-path" data-old_color="#000000" fill="#377DFF"/><path d="m5 27h22v2h-22z" data-original="#000000" class="active-path" data-old_color="#000000" fill="#377DFF"/><path d="m27 9h2v2h-2z" data-original="#000000" class="active-path" data-old_color="#000000" fill="#377DFF"/><path d="m23 9h2v2h-2z" data-original="#000000" class="active-path" data-old_color="#000000" fill="#377DFF"/><path d="m19 9h2v2h-2z" data-original="#000000" class="active-path" data-old_color="#000000" fill="#377DFF"/><path d="m42 57h2v2h-2z" data-original="#000000" class="active-path" data-old_color="#000000" fill="#377DFF"/><path d="m38 57h2v2h-2z" data-original="#000000" class="active-path" data-old_color="#000000" fill="#377DFF"/><path d="m34 57h2v2h-2z" data-original="#000000" class="active-path" data-old_color="#000000" fill="#377DFF"/><path d="m54.564 28.828 3.158-12.84c.785-2.752-.137-5.697-2.406-7.687-1.995-1.748-4.708-2.49-7.316-2.235v-5.066h-36.414l-10.586 10.586v51.414h47v-8.036c.332.017.662.036 1 .036 7.72 0 14-4.486 14-10v-7c0-4.01-3.351-7.607-8.436-9.172zm6.436 9.172c0 4.411-5.383 8-12 8s-12-3.589-12-8c0-3.064 2.697-5.861 6.812-7.191.12.866.188 1.74.188 2.616v3.812l.105.211c.053.104 1.318 2.552 4.895 2.552s4.842-2.448 4.895-2.553l.105-.211v-3.812c0-.875.068-1.749.188-2.616 4.115 1.331 6.812 4.128 6.812 7.192zm-7.002-28.194c1.707 1.497 2.38 3.604 1.792 5.669l-3.182 12.933c-.403 1.639-.608 3.327-.608 5.017v3.285c-.287.387-1.155 1.29-3 1.29-1.853 0-2.72-.91-3-1.287v-3.288c0-1.689-.205-3.378-.608-5.018l-3.182-12.932-.009-.035c-.579-2.03.094-4.137 1.801-5.634 2.755-2.414 7.239-2.415 9.996 0zm-13.924 5.194h-23.074v-8h25v1.987c-1.523 1.687-2.222 3.865-1.926 6.013zm-29.074-10.586v6.586h-6.586zm35 56.586h-43v-48h10v-10h33v3.474c-.697.217-1.37.507-2 .88v-2.354h-29v12h25.526l2.91 11.828c-5.085 1.565-8.436 5.162-8.436 9.172v7c0 4.778 4.718 8.779 11 9.763zm15-16c0 4.411-5.383 8-12 8s-12-3.589-12-8v-1.876c2.449 2.915 6.904 4.876 12 4.876s9.551-1.961 12-4.876z" data-original="#000000" class="active-path" data-old_color="#000000" fill="#377DFF"/></g> </svg>
